<?xml version="1.0" standalone="no"?>
<!DOCTYPE svg PUBLIC "-//W3C//DTD SVG 20010904//EN"
 "http://www.w3.org/TR/2001/REC-SVG-20010904/DTD/svg10.dtd">
<svg version="1.0" xmlns="http://www.w3.org/2000/svg"
 width="1350.000000pt" height="1014.000000pt" viewBox="0 0 1350.000000 1014.000000"
 preserveAspectRatio="xMidYMid meet">
<metadata>
Created by potrace 1.10, written by Peter Selinger 2001-2011
</metadata>
<g transform="translate(0.000000,1014.000000) scale(0.100000,-0.100000)"
fill="#000000" stroke="none">
<path d="M580 10116 c0 -14 7 -31 15 -39 11 -12 13 -27 9 -61 -5 -31 -3 -46 5
-46 6 0 11 7 11 15 0 8 5 15 10 15 6 0 8 -15 4 -40 -4 -27 -1 -50 9 -72 8 -18
23 -64 32 -103 10 -38 23 -90 30 -115 l12 -45 8 42 c3 23 4 47 0 53 -3 6 -9
45 -11 87 -3 42 -9 83 -13 92 -5 9 -11 41 -15 71 -4 31 -18 73 -31 95 -14 22
-28 48 -31 58 -10 27 -44 22 -44 -7z"/>
<path d="M1490 10125 c0 -9 7 -18 15 -21 21 -9 19 -44 -2 -44 -10 0 -31 7 -48
16 -20 10 -60 16 -115 17 -145 3 -230 -33 -339 -143 -90 -92 -132 -175 -151
-305 -7 -44 -20 -98 -30 -120 -48 -108 -52 -123 -47 -176 7 -77 30 -174 42
-174 6 0 12 47 15 110 3 68 10 118 18 130 27 39 65 60 109 59 53 -1 82 -32 84
-89 0 -22 4 -51 8 -63 l6 -24 19 21 c12 13 19 39 21 72 3 56 27 109 58 128 39
25 42 -4 9 -72 -33 -66 -40 -97 -22 -97 28 0 66 66 95 165 20 70 72 159 118
202 44 41 64 47 78 22 10 -20 11 -20 36 5 28 28 53 34 53 12 0 -8 -15 -33 -34
-55 -44 -53 -86 -141 -86 -181 0 -17 -4 -39 -10 -49 -12 -23 19 -55 47 -49 15
3 19 16 24 74 4 39 11 79 17 90 5 10 18 39 28 64 23 54 75 110 102 110 11 0
27 -11 36 -25 9 -14 22 -25 29 -25 20 0 54 -40 77 -92 19 -45 44 -66 55 -48 3
5 1 11 -5 15 -13 8 -13 52 0 60 18 11 76 -62 95 -122 23 -68 52 -116 67 -107
18 11 3 116 -25 175 -59 122 -32 120 111 -6 84 -74 101 -94 133 -150 l34 -60
-1 -162 c-1 -128 1 -163 12 -163 7 0 16 10 20 23 4 12 18 39 33 59 30 43 59
49 98 18 14 -11 30 -20 34 -20 5 0 9 61 9 135 0 135 -3 152 -46 238 -8 16 -14
34 -14 40 0 7 -7 25 -15 41 -17 33 -11 49 16 41 46 -15 22 54 -49 140 -33 41
-150 125 -173 125 -44 0 -33 58 12 67 45 9 27 16 -51 19 -86 3 -107 10 -115
35 -12 37 -76 59 -173 59 -67 0 -93 -4 -102 -15 -7 -8 -24 -15 -37 -15 -21 0
-24 3 -19 23 20 71 20 77 -7 77 -20 0 -26 -6 -31 -35 -4 -19 -11 -37 -17 -41
-15 -9 -79 38 -79 59 0 9 -7 17 -15 17 -8 0 -15 -7 -15 -15z m-117 -120 c-4
-13 1 -14 38 -8 24 4 51 6 59 5 17 -3 106 -11 130 -13 189 -11 274 -21 293
-34 12 -8 27 -15 34 -15 7 0 39 -19 70 -42 32 -24 65 -47 74 -53 115 -73 171
-143 173 -220 1 -67 -19 -70 -79 -11 -25 25 -53 46 -60 46 -8 0 -22 11 -31 25
-9 14 -26 25 -38 25 -12 0 -27 5 -34 12 -8 8 -42 12 -99 10 -85 -2 -87 -1
-135 35 -26 21 -48 41 -48 45 0 4 -7 8 -15 8 -8 0 -23 4 -33 9 -23 13 -75 25
-87 21 -13 -5 -85 -11 -155 -13 -39 -1 -67 -9 -95 -27 -44 -27 -165 -150 -165
-167 0 -36 -130 -107 -153 -84 -6 6 -21 11 -34 11 -30 0 -46 33 -37 73 4 18 8
43 9 57 3 37 3 37 25 43 11 3 20 13 20 22 0 36 42 107 76 127 18 11 34 24 34
28 0 5 21 18 48 30 26 12 59 28 75 36 15 9 36 12 47 9 13 -4 22 -1 26 9 4 10
18 16 40 16 26 0 32 -3 27 -15z"/>
<path d="M3168 9839 c-10 -5 -18 -21 -18 -34 0 -14 -15 -42 -35 -64 -36 -39
-44 -61 -23 -61 19 0 147 141 141 156 -6 16 -40 18 -65 3z"/>
<path d="M3360 9776 c0 -7 -22 -27 -50 -44 -27 -17 -50 -36 -50 -42 0 -16 33
-12 65 10 17 11 42 20 58 20 31 0 36 15 8 23 -14 3 -18 11 -14 26 3 12 1 21
-6 21 -6 0 -11 -6 -11 -14z"/>
<path d="M2972 9758 c-14 -14 -16 -48 -2 -48 10 0 30 32 30 49 0 14 -13 14
-28 -1z"/>
<path d="M244 9708 c4 -13 10 -41 13 -62 3 -21 14 -47 25 -58 10 -10 18 -25
18 -33 0 -8 7 -15 15 -15 8 0 15 5 15 11 0 20 -50 119 -60 119 -5 0 -10 14
-10 30 0 17 -5 30 -11 30 -7 0 -9 -9 -5 -22z"/>
<path d="M2915 9680 c-8 -14 3 -30 21 -30 8 0 14 9 14 20 0 21 -24 28 -35 10z"/>
<path d="M3228 9673 c-10 -2 -18 -8 -18 -13 0 -4 9 -6 20 -3 11 3 20 9 20 14
0 5 -1 8 -2 8 -2 -1 -11 -3 -20 -6z"/>
<path d="M3385 9619 l-30 -19 27 0 c37 0 58 10 58 26 0 19 -19 17 -55 -7z"/>
<path d="M2845 9544 c-38 -55 -145 -169 -165 -176 -13 -5 -66 -47 -113 -93
-34 -32 -39 -40 -24 -43 11 -2 34 14 62 42 24 25 48 46 53 46 4 0 18 14 30 30
13 17 29 30 37 30 7 0 17 9 20 20 3 11 13 20 22 20 8 0 35 20 60 45 24 25 47
45 51 45 5 0 15 -19 23 -41 11 -30 26 -48 54 -64 29 -16 40 -29 41 -46 0 -35
9 -46 44 -52 41 -9 38 -32 -7 -50 -21 -9 -60 -38 -88 -66 -27 -28 -55 -51 -61
-51 -5 0 -30 -20 -55 -45 -24 -24 -49 -45 -55 -45 -6 0 -19 -10 -30 -21 -26
-29 -63 -42 -79 -29 -10 8 -19 8 -34 -2 -23 -14 -27 -34 -8 -41 20 -7 -31 -50
-54 -44 -12 3 -19 0 -19 -9 0 -10 -13 -14 -44 -14 -36 0 -47 -5 -60 -25 -18
-27 -56 -34 -56 -10 0 8 9 24 19 34 10 10 22 33 26 50 4 17 11 31 17 31 11 0
6 116 -5 127 -12 11 -27 -9 -27 -35 0 -30 -22 -97 -47 -146 -45 -88 -134 -166
-189 -166 -28 0 -35 -5 -53 -42 -35 -72 -200 -228 -242 -228 -5 0 -35 -9 -66
-20 -32 -11 -71 -20 -87 -20 -20 0 -27 -3 -20 -10 13 -13 179 -11 201 3 6 4
18 5 26 2 8 -4 21 4 31 19 l16 26 22 -22 c17 -17 19 -24 9 -40 -6 -10 -9 -23
-6 -28 3 -5 -6 -33 -21 -62 -29 -57 -43 -117 -51 -215 -3 -42 -1 -63 6 -63 6
0 11 8 11 18 1 9 9 35 20 57 11 22 19 48 20 57 0 9 4 19 9 22 5 3 12 22 16 42
3 20 10 44 15 53 5 9 18 37 29 62 22 48 67 99 136 158 72 60 159 138 223 200
34 33 90 81 125 107 34 26 67 52 72 59 6 6 20 17 32 23 12 7 57 42 101 80 44
37 89 74 101 82 13 8 43 34 69 58 26 23 49 42 53 42 3 0 22 13 40 30 19 16 43
30 55 30 26 0 64 40 64 68 0 13 -17 34 -47 57 -61 46 -161 162 -169 195 -3 14
-7 31 -10 38 -8 25 -32 10 -69 -44z m-415 -743 c0 -12 -20 -25 -27 -18 -7 7 6
27 18 27 5 0 9 -4 9 -9z m-110 -90 c0 -15 -19 -23 -38 -16 -14 5 -14 7 -2 15
19 12 40 13 40 1z m-60 -72 c0 -4 -6 -12 -14 -18 -10 -8 -21 -7 -46 6 l-33 16
29 23 29 24 17 -23 c10 -12 18 -25 18 -28z m-112 -76 c-2 -10 -10 -18 -18 -18
-8 0 -16 8 -18 18 -2 12 3 17 18 17 15 0 20 -5 18 -17z"/>
<path d="M78 9563 c-2 -21 -9 -29 -28 -31 -48 -6 -56 -12 -30 -25 13 -7 29
-28 35 -47 11 -33 43 -60 73 -60 17 0 15 51 -3 77 -8 11 -17 39 -21 62 -8 50
-21 62 -26 24z"/>
<path d="M4676 9575 c-11 -8 -29 -15 -40 -15 -12 0 -45 -12 -75 -25 -30 -14
-60 -24 -67 -21 -19 7 -94 -32 -94 -50 0 -12 7 -14 28 -10 16 3 43 -2 67 -13
45 -22 60 -17 88 26 42 63 111 88 168 59 17 -9 37 -16 44 -16 21 0 58 -48 51
-66 -8 -21 19 -64 41 -64 9 0 30 5 47 11 25 9 39 8 69 -4 33 -14 37 -20 37
-51 0 -31 5 -38 33 -49 17 -8 38 -21 46 -30 25 -31 111 -17 111 18 0 10 -90
55 -111 55 -17 0 -69 40 -69 53 0 16 -65 67 -85 67 -19 0 -85 41 -105 65 -15
18 -132 75 -153 75 -7 0 -21 -7 -31 -15z"/>
<path d="M336 9528 c-3 -7 -8 -79 -11 -161 -4 -81 -11 -150 -16 -153 -5 -3 -9
-13 -9 -22 0 -9 -7 -30 -15 -46 -20 -37 -19 -49 4 -63 16 -10 20 -9 26 5 16
43 35 159 35 219 0 36 7 89 16 119 19 65 16 108 -9 112 -9 2 -19 -2 -21 -10z"/>
<path d="M8067 9514 c-3 -4 -28 -8 -55 -9 -68 -4 -87 -11 -100 -40 -9 -19 -19
-25 -45 -25 -28 0 -37 -6 -53 -35 -10 -19 -24 -35 -30 -35 -6 0 -17 -6 -23
-13 -6 -8 -23 -12 -40 -9 -20 3 -36 -2 -47 -12 -15 -15 -18 -15 -49 4 -34 21
-70 26 -79 11 -3 -4 -18 -11 -34 -14 -15 -3 -44 -22 -64 -41 -20 -20 -43 -36
-51 -36 -7 0 -27 -25 -42 -56 -31 -62 -72 -94 -120 -94 -19 0 -44 -11 -65 -29
-19 -15 -52 -33 -72 -40 -41 -13 -127 -85 -116 -96 4 -4 21 -10 39 -14 30 -6
37 -2 95 57 l62 64 64 -6 c34 -3 82 -9 106 -12 l42 -6 1 58 c0 33 8 79 17 104
15 40 25 49 82 78 53 27 74 32 113 29 30 -3 59 -13 75 -26 67 -53 68 -54 99
-38 19 10 33 30 45 64 13 34 28 55 53 71 19 12 35 28 35 36 0 7 19 20 43 29
62 22 257 12 257 -14 0 -6 22 -30 49 -55 45 -41 49 -50 55 -102 15 -126 25
-136 106 -107 25 9 74 21 109 25 57 8 68 6 93 -11 28 -21 48 -18 48 6 0 14
-21 25 -48 25 -8 0 -23 7 -33 15 -9 9 -39 18 -65 20 -98 8 -124 24 -169 106
-35 64 -46 76 -82 89 -23 8 -52 25 -65 36 -33 29 -127 61 -141 48z"/>
<path d="M1298 9503 c-9 -2 -19 -11 -22 -19 -4 -10 3 -14 28 -14 19 0 41 -3
50 -6 11 -4 16 0 16 14 0 17 -29 35 -50 31 -3 -1 -12 -3 -22 -6z"/>
<path d="M3338 9490 c-38 -3 -71 -9 -74 -13 -12 -12 7 -26 44 -33 20 -4 42
-11 49 -16 7 -5 14 -5 18 2 3 6 24 19 46 30 21 11 39 25 39 30 0 11 -19 11
-122 0z"/>
<path d="M4296 9432 c6 -27 4 -32 -13 -32 -10 0 -28 -7 -39 -15 -10 -8 -37
-20 -58 -26 -22 -6 -53 -24 -69 -41 -18 -18 -55 -37 -94 -49 -35 -11 -61 -24
-58 -29 3 -5 38 -6 78 -3 52 4 77 11 90 24 10 11 24 19 31 19 8 0 20 9 27 21
12 17 29 22 89 27 l75 7 3 35 c2 19 11 43 19 52 14 16 14 18 0 24 -9 3 -24 1
-34 -4 -13 -8 -23 -6 -36 5 -16 15 -17 14 -11 -15z"/>
<path d="M2000 9383 c-19 -7 -60 -44 -60 -55 0 -12 54 -10 67 3 9 9 20 6 43
-11 26 -19 34 -20 41 -9 12 20 12 23 -13 46 -26 24 -56 34 -78 26z"/>
<path d="M1298 9358 c-54 -44 -65 -127 -22 -167 l25 -24 27 20 c40 30 54 62
47 112 -7 60 -42 86 -77 59z"/>
<path d="M3172 9350 c14 -21 28 -27 28 -10 0 6 10 10 23 10 18 0 19 2 7 10 -8
5 -27 10 -43 10 -25 0 -26 -2 -15 -20z"/>
<path d="M1954 9203 c-9 -15 -19 -48 -22 -74 -4 -40 -1 -48 22 -66 34 -27 60
-20 86 24 38 65 17 143 -39 143 -20 0 -34 -8 -47 -27z m46 -104 c0 -10 -7 -19
-15 -19 -15 0 -21 31 -9 43 11 10 24 -3 24 -24z"/>
<path d="M716 9170 c-18 -44 -13 -70 14 -70 19 0 30 27 30 78 0 45 -24 41 -44
-8z"/>
<path d="M834 9085 c5 -62 3 -86 -9 -109 -19 -36 -19 -39 4 -31 27 8 36 -12
17 -40 -21 -32 -1 -34 38 -4 36 28 60 18 54 -22 -4 -25 -1 -33 14 -37 20 -5
24 -17 8 -27 -5 -3 -10 -19 -10 -36 0 -26 3 -29 30 -29 35 0 63 -36 63 -82 0
-22 7 -33 24 -41 13 -5 23 -16 23 -23 0 -12 48 -44 65 -44 14 0 1 27 -39 85
-24 35 -47 73 -51 84 -3 12 -11 21 -16 21 -5 0 -9 16 -9 35 0 20 -6 48 -14 63
-7 15 -19 59 -26 97 -15 79 -24 95 -52 95 -21 0 -88 65 -88 86 0 6 -7 18 -17
25 -15 13 -15 8 -9 -66z"/>
<path d="M8660 9136 c0 -7 7 -19 15 -26 9 -7 15 -35 17 -78 l3 -67 35 -3 c19
-2 54 -12 76 -22 34 -15 43 -25 48 -52 11 -60 77 -83 149 -53 20 8 60 15 89
15 76 0 47 15 -56 29 -97 13 -117 21 -158 60 -15 14 -46 42 -68 61 -23 19 -55
61 -71 93 -24 46 -34 57 -54 57 -15 0 -25 -6 -25 -14z"/>
<path d="M127 9112 c-10 -10 -17 -30 -17 -43 0 -14 -4 -29 -9 -34 -5 -6 -12
-32 -16 -58 -6 -44 -5 -48 12 -45 11 2 20 15 23 38 8 47 25 77 56 96 l25 17
-22 23 c-27 29 -31 29 -52 6z"/>
<path d="M1136 9104 c-3 -8 6 -26 19 -41 18 -22 26 -25 36 -16 9 10 5 18 -19
41 -22 21 -32 25 -36 16z"/>
<path d="M4823 9099 c-9 -9 -73 -13 -235 -15 -325 -4 -559 -13 -593 -22 -30
-8 -30 -8 18 -20 41 -11 52 -10 75 3 24 14 39 14 132 2 71 -9 142 -11 220 -6
69 5 159 3 227 -4 85 -8 124 -8 163 1 28 7 111 12 185 12 152 0 195 6 195 27
0 11 -7 13 -24 9 -14 -3 -36 -2 -51 4 -43 16 -298 24 -312 9z"/>
<path d="M1341 9077 c-7 -18 -18 -27 -33 -27 -13 0 -30 -4 -38 -10 -12 -7 -12
-10 4 -16 21 -8 85 22 93 44 3 7 1 18 -5 24 -8 8 -14 4 -21 -15z"/>
<path d="M2693 9065 c-3 -9 -3 -18 0 -21 9 -9 27 6 27 22 0 19 -19 18 -27 -1z"/>
<path d="M1877 8973 c-4 -3 -7 -17 -7 -30 0 -18 9 -28 35 -39 19 -7 41 -14 49
-14 24 0 7 29 -20 36 -23 6 -35 34 -14 34 6 0 10 5 10 10 0 11 -43 14 -53 3z"/>
<path d="M2043 8923 c-24 -5 -30 -18 -13 -28 12 -7 50 12 50 25 0 6 -3 9 -7 9
-5 -1 -18 -4 -30 -6z"/>
<path d="M6873 8920 c-13 -5 -23 -16 -23 -24 0 -9 -11 -18 -25 -22 -41 -10
-28 -24 23 -24 53 0 87 24 80 57 -4 21 -24 26 -55 13z"/>
<path d="M60 8897 c-30 -23 -60 -75 -59 -104 0 -15 3 -22 6 -15 3 7 22 21 42
32 40 20 71 50 52 50 -6 0 -11 -4 -11 -10 0 -5 -7 -10 -15 -10 -8 0 -15 7 -15
15 0 8 7 15 15 15 16 0 19 9 7 27 -5 9 -11 9 -22 0z"/>
<path d="M278 8859 c-26 -15 -22 -38 8 -45 30 -8 44 8 37 37 -6 21 -19 23 -45
8z"/>
<path d="M710 8841 c0 -20 17 -37 27 -28 7 8 -7 47 -18 47 -5 0 -9 -9 -9 -19z"/>
<path d="M1213 8813 c8 -48 38 -107 76 -150 36 -41 46 -41 66 -3 21 41 80 53
107 20 16 -19 24 -21 63 -16 65 10 87 -5 83 -57 l-3 -42 37 3 c70 5 228 112
228 154 0 17 -4 19 -27 14 -69 -17 -180 -18 -246 -2 -38 9 -80 16 -95 16 -45
0 -190 51 -231 82 -13 10 -33 18 -44 18 -17 0 -19 -5 -14 -37z"/>
<path d="M9204 8809 c-3 -6 5 -22 19 -36 28 -29 53 -24 37 7 -14 27 -47 43
-56 29z"/>
<path d="M707 8774 c-4 -4 -4 -23 -1 -43 3 -20 0 -57 -6 -81 -8 -27 -15 -139
-17 -275 -6 -295 -6 -316 7 -329 7 -7 10 3 10 31 0 23 5 43 11 45 24 8 37 647
13 655 -5 2 -13 0 -17 -3z"/>
<path d="M6544 8755 c-16 -12 -16 -14 -3 -15 9 0 37 -3 63 -6 51 -7 62 6 21
24 -34 16 -57 15 -81 -3z"/>
<path d="M6905 8731 c-7 -13 17 -24 40 -19 9 1 16 8 16 13 0 14 -48 19 -56 6z"/>
<path d="M8361 8612 c-8 -14 -37 -16 -229 -14 -193 2 -220 1 -226 -13 -5 -15
16 -16 212 -11 119 3 242 8 272 11 63 7 72 7 160 2 36 -1 94 1 129 5 43 6 68
5 77 -3 7 -6 18 -8 24 -4 6 3 88 8 183 9 229 5 223 4 211 16 -11 11 -267 17
-499 12 -71 -1 -169 0 -218 2 -72 3 -89 1 -96 -12z"/>
<path d="M7470 8580 c18 -12 279 -10 286 2 3 4 -64 8 -148 8 -104 0 -148 -3
-138 -10z"/>
<path d="M1232 8554 c-14 -10 -22 -25 -22 -45 0 -47 -16 -69 -50 -69 -17 0
-30 -4 -30 -10 0 -5 -16 -10 -35 -10 -28 0 -37 -5 -49 -29 -15 -28 -41 -45
-56 -36 -4 2 -13 18 -20 35 -7 17 -20 30 -30 30 -19 0 -55 -70 -47 -92 2 -7 0
-22 -6 -33 -22 -43 -27 -89 -10 -107 14 -16 14 -22 3 -43 -12 -22 -11 -27 4
-44 25 -27 12 -41 -38 -41 -36 0 -45 -4 -49 -20 -3 -13 2 -28 12 -38 10 -9 21
-25 24 -35 4 -9 15 -20 24 -24 10 -3 25 -12 33 -19 8 -7 29 -14 45 -16 24 -2
29 -7 27 -23 -13 -83 -22 -111 -37 -120 -9 -5 -35 -23 -57 -38 -36 -26 -39
-31 -37 -70 2 -24 -1 -48 -4 -54 -4 -7 0 -31 9 -54 17 -40 17 -42 -2 -55 -42
-29 -43 -32 -37 -102 3 -37 9 -71 14 -77 5 -5 9 -17 9 -28 0 -10 16 -33 35
-50 34 -30 35 -33 35 -104 0 -72 1 -74 30 -91 25 -14 30 -23 30 -57 0 -46 43
-144 85 -193 l28 -34 -31 -61 c-34 -67 -38 -91 -21 -150 19 -69 127 -100 199
-56 19 12 37 24 40 28 3 3 14 14 25 23 20 17 25 16 95 -8 64 -22 89 -25 177
-22 86 2 104 0 121 -15 13 -12 22 -15 27 -8 3 7 41 11 89 11 l83 0 24 35 c13
19 36 39 51 44 14 5 29 19 33 30 4 14 15 21 30 21 59 0 175 107 175 160 0 27
28 70 46 70 7 0 18 9 24 20 14 26 40 25 73 0 23 -19 27 -19 35 -4 12 21 46 14
50 -11 7 -51 14 -65 28 -65 12 0 14 7 9 30 -6 26 -4 30 15 30 11 0 31 -7 44
-15 23 -15 25 -14 44 17 12 18 31 39 43 47 20 12 24 11 34 -3 7 -9 15 -16 18
-16 14 0 67 61 73 85 4 15 15 36 25 46 20 20 26 49 10 49 -13 0 -34 57 -27 75
3 8 14 15 25 15 29 0 53 38 39 63 -9 18 -7 19 18 15 16 -3 35 -7 43 -9 21 -6
26 32 7 46 -9 7 -36 10 -65 7 -29 -2 -51 0 -55 7 -9 14 11 51 28 51 8 0 24 9
37 19 23 18 23 20 6 38 -9 11 -17 27 -17 36 0 9 -5 17 -11 17 -5 0 -34 22 -62
49 -72 67 -94 77 -117 56 -25 -22 -52 -12 -48 17 2 16 14 26 38 34 35 12 50
38 32 56 -14 14 -71 -18 -82 -47 -10 -25 -43 -49 -54 -38 -3 3 -6 15 -6 25 0
34 -45 68 -88 66 -52 -2 -62 6 -62 51 0 36 -23 71 -46 71 -5 0 -27 12 -48 26
-22 15 -46 24 -57 21 -16 -4 -21 1 -26 24 -4 19 -19 39 -42 55 -41 28 -63 30
-81 9 -20 -24 -38 -18 -71 28 -35 49 -80 76 -127 77 -37 0 -52 23 -34 49 23
30 25 42 12 66 -11 21 -9 29 19 70 42 63 39 81 -10 55 -27 -15 -34 8 -15 45
20 37 11 49 -19 28 -14 -11 -27 -33 -30 -53 -10 -56 -13 -60 -39 -60 -36 0
-48 30 -40 99 6 59 6 59 -24 75 -17 9 -40 16 -52 16 -11 0 -23 8 -26 18 -16
47 -30 63 -67 73 -41 11 -42 11 -108 -26 -10 -5 -23 -20 -29 -33 -8 -19 -13
-22 -25 -12 -7 6 -24 10 -37 8 -21 -3 -23 2 -26 40 -2 31 1 44 12 48 9 3 16
12 16 20 0 19 -50 18 -78 -2z m53 -170 c9 -4 21 -18 26 -31 8 -22 13 -24 45
-19 28 6 40 3 59 -16 14 -13 25 -31 25 -40 0 -19 38 -89 54 -100 28 -19 37 44
11 78 -29 39 -9 104 32 104 27 0 39 -16 47 -63 6 -30 14 -41 44 -55 38 -19 39
-21 28 -58 -6 -21 5 -37 57 -75 63 -47 5 -79 -145 -79 -93 0 -100 -1 -105 -21
-5 -19 -10 -20 -72 -14 l-66 6 -20 -37 c-35 -65 -54 -84 -86 -84 -33 0 -89
-47 -89 -74 0 -20 16 -21 23 -2 3 7 29 21 59 31 29 9 82 31 118 48 52 25 82
33 150 37 78 5 83 6 61 19 l-24 13 24 19 c32 24 71 25 67 2 -3 -20 0 -21 99
-9 71 8 73 7 141 -29 38 -21 76 -50 85 -64 18 -31 92 -74 154 -90 55 -15 128
-65 175 -122 40 -48 43 -62 47 -221 1 -27 6 -48 11 -48 6 0 10 7 10 15 0 9 7
18 15 22 13 4 14 15 9 49 -8 53 6 62 61 40 21 -9 48 -16 61 -16 13 0 28 -9 34
-20 9 -16 20 -20 56 -18 60 2 80 -19 88 -94 7 -65 -3 -78 -40 -53 -14 9 -27
15 -28 13 -1 -2 -13 -23 -25 -47 l-22 -44 28 -39 c21 -31 28 -55 31 -104 5
-80 -7 -98 -57 -90 -66 12 -135 4 -190 -21 -46 -21 -67 -8 -63 38 l3 34 -19
-22 c-14 -16 -22 -19 -31 -10 -6 6 -11 17 -11 24 0 7 -4 13 -9 13 -6 0 -7 -16
-4 -36 5 -32 4 -36 -13 -32 -16 3 -19 11 -16 48 1 24 7 49 11 54 5 6 9 50 9
98 1 76 -2 91 -24 123 -13 20 -24 44 -24 53 0 9 -6 29 -14 44 -8 15 -17 41
-21 60 -9 39 -90 152 -123 169 -12 7 -25 23 -28 36 -9 32 -38 47 -63 31 -16
-10 -23 -9 -39 5 -10 9 -30 17 -43 17 -14 0 -30 5 -36 11 -5 5 -63 16 -127 24
-77 9 -124 19 -135 29 -23 21 -114 22 -131 1 -7 -8 -28 -15 -46 -15 -19 0 -34
-4 -34 -10 0 -5 14 -10 30 -10 20 0 30 -5 30 -15 0 -10 -11 -15 -35 -15 -19 0
-35 5 -35 10 0 6 -9 10 -20 10 -11 0 -20 -4 -20 -10 0 -5 7 -10 15 -10 8 0 15
-3 15 -7 0 -12 -67 -63 -82 -63 -8 0 -19 -5 -26 -12 -9 -9 -20 -9 -45 -1 -17
6 -50 14 -72 18 -64 10 -75 15 -75 35 0 10 11 25 25 34 14 9 25 25 25 36 0 11
5 20 10 20 17 0 60 51 60 71 0 30 -28 22 -46 -13 -21 -41 -33 -49 -56 -37 -25
13 -15 74 18 110 13 14 24 28 24 31 0 3 -20 9 -46 13 -35 5 -48 12 -57 32 -16
36 13 56 71 48 46 -7 54 5 28 41 -10 13 -11 23 -4 32 14 16 1 29 -14 14 -19
-19 -24 -15 -48 39 -19 45 -20 55 -9 76 17 32 54 50 118 59 28 4 54 11 57 15
3 5 16 9 29 9 15 0 33 11 47 30 23 32 27 34 53 24z m455 -699 c9 -8 24 -15 32
-15 9 0 19 -7 22 -16 5 -14 18 -16 77 -12 79 6 88 -1 71 -52 l-11 -30 28 15
c26 13 30 13 49 -8 11 -12 23 -32 26 -44 4 -11 13 -27 21 -33 8 -7 15 -27 15
-45 0 -18 6 -38 14 -44 7 -6 16 -24 19 -40 3 -15 17 -42 32 -59 24 -28 25 -35
20 -113 -3 -46 -9 -86 -14 -89 -15 -10 -39 -66 -49 -115 -6 -27 -14 -58 -17
-67 -5 -13 0 -20 19 -28 21 -8 26 -16 26 -45 0 -66 -82 -81 -129 -24 -10 13
-39 30 -64 39 l-46 15 24 50 c28 58 31 93 11 121 -13 16 -18 17 -35 7 -12 -7
-28 -13 -37 -13 -31 0 -94 -86 -94 -129 0 -30 30 -51 74 -51 14 0 48 -20 80
-47 77 -65 85 -103 32 -139 -43 -28 -91 -11 -152 52 -49 50 -53 59 -56 107 -3
58 6 52 -98 56 -14 1 -32 6 -40 11 -13 9 -13 12 3 21 40 23 9 78 -45 79 -16 0
-28 -4 -28 -10 0 -18 -22 -11 -46 15 -13 14 -28 25 -33 25 -6 0 -27 17 -48 38
-32 31 -38 44 -38 80 0 34 5 47 27 65 45 38 80 104 76 145 -3 33 -6 37 -33 40
-30 3 -125 -49 -125 -69 0 -5 -4 -9 -10 -9 -5 0 -10 7 -10 16 0 28 -70 82
-117 89 -51 7 -70 -3 -114 -64 -28 -38 -30 -44 -21 -85 5 -25 30 -72 57 -111
52 -73 56 -87 77 -263 11 -94 25 -119 51 -93 25 25 84 10 98 -25 6 -17 16 -24
34 -24 29 0 75 -40 75 -66 0 -30 -24 -84 -37 -84 -22 0 -117 41 -138 59 -33
29 -45 34 -45 16 0 -8 11 -21 25 -27 20 -9 25 -18 23 -37 -3 -27 -5 -28 -50
-17 -18 4 -32 1 -42 -10 -32 -31 -41 -12 -42 92 -1 54 -5 108 -10 119 -55 138
-85 200 -98 207 -9 5 -16 15 -16 22 0 8 -6 16 -14 19 -9 4 -15 31 -18 89 -4
69 -9 89 -31 122 -31 45 -34 80 -13 177 14 69 57 149 80 149 7 0 19 7 26 15
31 37 90 8 118 -57 14 -33 48 -37 57 -8 8 25 66 70 89 70 10 0 30 6 44 13 15
8 50 24 77 37 28 13 61 29 75 36 36 19 236 11 260 -11z m-567 -322 c50 -28
107 -74 107 -86 0 -6 6 -18 14 -26 8 -9 17 -28 21 -43 15 -58 -75 -74 -149
-26 -43 28 -96 100 -96 129 1 36 28 65 63 68 5 1 23 -7 40 -16z m206 -57 c8
-9 8 -21 1 -40 -10 -27 -17 -30 -44 -20 -20 8 -20 23 0 52 18 26 27 27 43 8z
m1271 -87 c0 -36 -19 -38 -49 -5 -21 22 -21 25 -5 34 29 16 54 3 54 -29z
m-1376 -135 c9 -8 16 -19 16 -24 0 -19 178 -181 221 -200 13 -6 53 -26 89 -45
35 -19 69 -35 75 -35 6 0 19 -6 29 -13 14 -10 15 -18 7 -40 -13 -33 -40 -35
-107 -6 -178 75 -300 163 -386 278 -25 33 -26 35 -10 68 17 36 41 42 66 17z
m581 -135 c9 -26 -26 -65 -49 -56 -21 8 -20 47 2 63 25 19 40 17 47 -7z m-67
-305 c31 -10 49 -11 63 -4 39 21 12 -24 -31 -51 -14 -9 -38 -19 -55 -22 -16
-3 -40 -8 -51 -12 -19 -6 -21 -4 -16 20 5 26 3 27 -28 20 -20 -4 -41 -2 -56 5
-19 11 -25 10 -39 -4 -18 -18 -109 -22 -135 -6 -20 12 -12 18 51 36 30 8 68
19 84 24 45 13 164 9 213 -6z"/>
<path d="M1237 8255 c-3 -7 -23 -23 -44 -34 l-38 -19 29 -13 c24 -11 32 -11
58 4 33 19 64 22 73 7 9 -15 22 -12 30 7 4 13 -2 25 -22 40 -32 26 -78 30 -86
8z"/>
<path d="M1860 7862 c0 -21 28 -45 45 -38 17 6 17 7 0 26 -18 20 -45 27 -45
12z"/>
<path d="M1827 7779 c14 -27 39 -48 47 -38 2 2 -1 19 -6 37 -7 25 -14 32 -33
32 -23 0 -23 -1 -8 -31z"/>
<path d="M1985 7751 c-6 -11 47 -51 69 -51 24 0 19 19 -8 30 -13 5 -27 14 -31
19 -8 13 -22 14 -30 2z"/>
<path d="M2360 7382 c0 -10 6 -26 13 -36 11 -15 17 -17 35 -7 30 16 28 28 -8
46 -37 19 -40 19 -40 -3z"/>
<path d="M2250 7343 c0 -24 4 -43 9 -43 19 0 21 18 6 51 l-14 34 -1 -42z"/>
<path d="M2412 7258 c6 -18 25 -20 31 -3 5 10 0 15 -14 15 -12 0 -19 -5 -17
-12z"/>
<path d="M2406 7190 c4 -18 -1 -32 -15 -44 -31 -28 -27 -48 7 -40 32 8 72 33
72 44 0 13 -30 40 -45 40 -7 0 -16 6 -19 13 -3 6 -3 1 0 -13z"/>
<path d="M1413 7586 c-17 -6 -41 -20 -52 -31 -30 -26 -11 -41 27 -21 46 24 77
20 115 -14 42 -37 47 -37 47 -4 0 38 -16 61 -51 73 -37 13 -43 13 -86 -3z"/>
<path d="M1910 7499 c-8 -4 -23 -10 -32 -13 -26 -8 -22 -26 6 -26 24 0 50 22
44 38 -1 5 -10 6 -18 1z"/>
<path d="M1948 7249 c-29 -16 -21 -35 21 -47 44 -14 58 -27 63 -62 5 -41 23
-28 26 20 2 37 -2 50 -23 73 -27 28 -57 34 -87 16z"/>
<path d="M7060 8560 c-16 -5 10 -8 77 -9 58 -1 104 3 108 9 7 12 -147 12 -185
0z"/>
<path d="M818 8554 c-5 -4 -8 -37 -8 -73 0 -45 3 -62 11 -54 5 5 9 38 7 72 -2
35 -6 59 -10 55z"/>
<path d="M2696 8061 c-9 -14 17 -29 39 -21 19 7 19 7 -2 18 -26 14 -30 15 -37
3z"/>
<path d="M200 7986 c0 -78 24 -105 36 -41 8 44 -2 85 -21 85 -11 0 -15 -12
-15 -44z"/>
<path d="M667 7924 c-8 -16 -17 -55 -21 -86 -3 -32 -16 -83 -27 -114 -15 -39
-20 -69 -16 -97 3 -23 1 -49 -4 -58 -5 -10 -10 -44 -10 -76 -1 -32 -7 -74 -14
-93 -7 -19 -11 -57 -10 -85 1 -29 -6 -74 -17 -105 -40 -118 -47 -428 -12 -578
7 -35 15 -102 15 -150 1 -48 5 -100 9 -117 6 -27 8 -28 16 -10 8 18 9 96 6
415 -1 121 12 284 34 420 23 148 32 217 43 325 6 55 15 145 21 200 20 175 22
217 12 227 -7 7 -15 1 -25 -18z"/>
<path d="M3 7365 c0 -33 2 -45 4 -27 2 18 2 45 0 60 -2 15 -4 0 -4 -33z"/>
<path d="M2870 7060 c-64 -34 -110 -84 -110 -119 0 -39 -45 -104 -89 -129 -23
-13 -41 -27 -41 -32 0 -5 9 -25 21 -44 12 -21 23 -61 26 -98 3 -36 12 -71 21
-81 12 -13 13 -20 4 -29 -11 -11 -76 -26 -137 -31 -16 -2 -57 -16 -90 -32 -33
-16 -89 -37 -125 -47 -97 -28 -369 -98 -415 -108 -106 -21 -215 -75 -201 -99
10 -15 56 -13 86 4 14 8 40 14 58 15 18 0 43 5 55 12 12 6 42 15 67 19 25 4
70 17 100 29 30 12 73 26 95 30 59 11 134 29 186 46 26 8 54 14 62 14 8 0 29
7 46 15 17 8 45 22 62 30 17 8 39 15 49 15 9 0 23 6 29 14 7 8 28 16 49 19 83
13 102 19 102 36 0 9 -13 22 -30 28 -16 6 -30 18 -30 27 0 27 43 40 162 47
109 6 120 8 155 36 21 16 52 38 70 48 17 10 40 33 49 51 16 30 16 34 1 58 -9
14 -17 43 -17 65 0 22 -5 41 -11 43 -17 6 -40 80 -33 111 11 53 -32 72 -91 41
-28 -15 -31 -14 -44 5 -17 27 -25 26 -91 -9z m97 -96 c5 -15 -47 -28 -60 -15
-5 5 -6 14 -2 21 9 14 57 9 62 -6z m-102 -30 c8 -20 15 -47 15 -60 0 -13 5
-24 11 -24 7 0 10 12 7 30 -6 40 6 47 75 42 59 -4 68 -11 42 -32 -23 -19 -18
-30 15 -30 44 0 39 -31 -10 -64 -22 -14 -44 -26 -50 -26 -5 0 -10 -5 -10 -10
0 -23 -50 -52 -92 -55 -24 -1 -51 -5 -60 -10 -13 -5 -20 -1 -27 18 -5 14 -15
28 -20 32 -13 7 -15 42 -3 47 21 9 41 79 35 127 l-6 51 31 0 c27 0 34 -6 47
-36z"/>
<path d="M2937 6843 c-11 -10 -8 -51 3 -58 6 -3 10 5 10 19 0 14 8 30 18 35
15 9 15 10 -4 11 -11 0 -24 -3 -27 -7z"/>
<path d="M410 6800 c0 -7 -7 -22 -16 -32 -11 -12 -19 -46 -24 -100 -4 -45 -12
-84 -18 -86 -6 -2 -9 -15 -7 -30 3 -15 6 -196 8 -402 3 -261 7 -382 15 -397 9
-17 9 -25 -1 -35 -7 -7 -14 -37 -15 -67 -2 -30 -8 -63 -13 -74 -6 -10 -8 -29
-5 -42 4 -14 -1 -36 -11 -52 -10 -19 -14 -38 -9 -56 9 -37 26 -24 26 19 0 19
6 45 14 57 7 12 16 50 20 83 3 34 11 81 17 105 9 33 9 81 1 189 -6 80 -14 240
-17 355 -6 177 -5 221 9 274 9 34 16 86 16 114 0 29 5 81 10 117 5 35 7 66 5
69 -3 2 -5 -2 -5 -9z"/>
<path d="M2395 6750 c-3 -5 -16 -10 -28 -10 -12 0 -34 -6 -49 -14 -15 -8 -40
-17 -57 -21 -17 -4 -31 -13 -31 -21 0 -19 74 -19 94 1 8 8 30 18 48 22 36 7
81 37 71 47 -10 10 -41 7 -48 -4z"/>
<path d="M60 6402 c0 -44 5 -75 15 -88 8 -10 15 -33 15 -51 0 -17 5 -35 11
-39 14 -8 3 106 -12 121 -5 5 -9 35 -9 67 0 32 -4 58 -10 58 -6 0 -10 -29 -10
-68z"/>
<path d="M980 6372 c0 -10 14 -31 30 -47 28 -27 38 -54 24 -68 -3 -3 -32 10
-65 29 -51 30 -62 33 -81 23 -12 -7 -67 -13 -123 -15 -55 -1 -122 -9 -150 -17
-45 -13 -50 -17 -53 -46 -4 -37 10 -58 40 -63 34 -5 31 -23 -4 -33 l-33 -10
-7 -85 c-4 -47 -27 -170 -52 -275 -24 -104 -58 -251 -76 -325 -45 -193 -65
-358 -47 -376 4 -4 16 1 27 11 46 42 70 -36 70 -229 0 -79 4 -137 10 -141 6
-4 10 7 10 27 0 54 12 63 46 36 16 -13 40 -29 54 -36 14 -7 40 -23 58 -36 18
-13 57 -32 88 -42 30 -9 57 -21 60 -25 3 -5 20 -9 37 -9 35 0 80 25 102 57 16
23 67 33 197 36 65 2 91 7 106 20 10 9 28 17 39 17 11 0 26 7 33 15 7 8 27 15
44 15 18 0 37 5 44 12 8 8 14 5 22 -16 12 -32 30 -26 30 11 0 30 29 83 46 83
6 0 14 -9 17 -21 8 -29 27 -14 27 21 0 33 15 47 34 31 15 -13 26 -5 26 20 0
27 19 33 35 13 13 -17 16 -17 24 -4 6 8 8 25 5 36 -7 28 15 42 31 21 17 -23
38 -21 82 8 91 58 132 116 116 162 -6 16 -8 52 -5 81 3 36 0 62 -12 86 -20 43
-20 65 0 73 24 9 46 -25 39 -59 -5 -20 -2 -29 14 -38 18 -9 23 -7 33 17 16 38
16 37 32 24 12 -10 27 -6 78 19 35 17 77 44 93 60 125 123 194 182 218 187 15
3 27 9 27 14 0 5 7 9 15 9 8 0 15 -4 15 -8 0 -4 22 -24 50 -45 29 -22 52 -48
56 -64 6 -22 0 -32 -40 -68 -25 -23 -46 -47 -46 -53 0 -6 -16 -19 -35 -28 -19
-9 -35 -22 -35 -30 0 -7 -24 -32 -52 -54 -29 -22 -68 -52 -86 -67 -18 -16 -47
-35 -65 -43 -18 -8 -46 -25 -61 -37 -16 -13 -33 -23 -38 -23 -5 0 -25 -16 -45
-35 -20 -19 -41 -35 -47 -35 -6 0 -35 -18 -65 -40 -29 -22 -59 -40 -65 -40 -7
0 -18 -12 -25 -26 -7 -15 -18 -24 -28 -22 -9 2 -27 -6 -40 -17 -12 -11 -36
-32 -53 -47 -17 -16 -40 -28 -50 -28 -11 0 -34 -14 -52 -30 -62 -58 -186 -150
-201 -150 -9 0 -22 -9 -30 -20 -7 -11 -33 -33 -56 -50 -23 -17 -57 -48 -76
-69 -20 -22 -51 -43 -75 -50 -22 -6 -40 -16 -40 -21 0 -18 32 -40 59 -40 15 0
32 -5 39 -12 9 -9 24 1 64 41 47 47 205 161 223 161 10 0 124 89 185 144 49
45 203 156 215 156 7 0 128 84 197 137 31 24 59 43 62 43 11 0 162 106 196
137 19 18 60 55 90 83 30 28 90 76 133 106 132 93 140 109 80 148 -54 34 -145
128 -166 170 -9 20 -25 52 -34 71 -10 19 -24 35 -31 35 -8 0 -41 -28 -75 -63
-56 -57 -190 -181 -322 -298 -27 -24 -56 -52 -63 -62 -17 -22 -37 -9 -45 31
-3 15 -9 39 -13 54 -5 24 -2 29 20 38 15 5 29 17 33 26 8 20 -24 118 -49 149
-10 13 -18 26 -18 29 0 11 27 6 56 -8 38 -21 46 -11 23 27 -29 49 -49 69 -107
113 l-53 39 40 3 c58 4 55 13 -25 79 -56 46 -113 73 -153 73 -40 0 -71 11 -71
25 0 15 30 24 85 26 l40 2 -43 6 c-55 10 -71 25 -43 43 24 14 28 38 7 38 -7 0
-35 9 -61 21 -35 16 -58 19 -87 15 -34 -6 -40 -4 -45 14 -6 24 -21 25 -52 3
-18 -12 -28 -14 -42 -5 -14 9 -23 7 -42 -8 -46 -36 -51 -30 -47 53 1 34 -3 54
-16 68 -21 23 -34 24 -34 3 0 -21 -38 -84 -51 -84 -5 0 -25 18 -46 40 -60 67
-183 115 -183 72z m117 -138 c8 -21 -13 -42 -28 -27 -13 13 -5 43 11 43 6 0
13 -7 17 -16z m-232 -44 c-10 -11 -24 -20 -30 -20 -7 0 -27 -13 -45 -30 -20
-19 -43 -30 -60 -30 -16 0 -32 -4 -35 -10 -11 -17 -44 -11 -55 11 -22 40 25
67 125 73 22 1 49 7 60 14 11 6 29 12 39 12 18 0 18 -1 1 -20z m298 -89 c14
-2 7 -43 -12 -69 -26 -38 -34 -68 -26 -102 8 -37 22 -38 35 -2 40 108 122 153
206 110 16 -8 61 -30 99 -48 73 -36 175 -123 175 -150 0 -9 6 -24 14 -35 7
-11 21 -64 32 -118 16 -87 16 -106 4 -170 -7 -40 -15 -91 -18 -114 l-4 -43 47
0 c43 0 52 -4 91 -44 38 -37 44 -49 44 -86 0 -48 -21 -91 -68 -136 -38 -37
-69 -45 -122 -32 l-38 10 -79 -78 c-75 -76 -117 -103 -248 -159 -50 -21 -230
-31 -308 -17 -73 14 -91 8 -81 -27 4 -14 8 -42 8 -61 1 -31 -2 -35 -26 -38
-14 -2 -47 6 -72 17 -25 12 -51 21 -58 21 -17 0 -168 88 -168 98 0 4 20 25 45
45 25 21 45 46 45 56 0 11 -19 30 -45 47 -25 15 -45 31 -45 34 0 3 -14 21 -31
40 -42 46 -73 107 -72 144 0 17 5 87 11 156 22 251 36 370 43 370 4 0 22 30
39 67 62 130 134 212 230 259 82 41 245 66 353 55z m642 -287 c45 -45 56 -79
34 -101 -8 -8 -6 -14 9 -22 19 -10 21 -19 18 -94 -1 -45 -8 -92 -15 -105 l-12
-22 -30 22 c-28 21 -30 27 -25 66 3 24 1 75 -4 114 -7 44 -7 75 -1 81 5 5 0
23 -15 44 -50 73 -24 84 41 17z"/>
<path d="M813 5943 c-3 -10 -8 -21 -10 -26 -3 -4 13 -5 35 -1 34 5 45 2 68
-19 15 -14 31 -24 36 -21 14 9 9 43 -9 64 -23 27 -110 29 -120 3z"/>
<path d="M805 5794 c-37 -40 -48 -90 -29 -131 20 -42 50 -43 87 -5 31 33 46
107 28 141 -16 29 -56 27 -86 -5z m21 -110 c-5 -13 -10 -14 -18 -6 -6 6 -8 18
-4 28 5 13 10 14 18 6 6 -6 8 -18 4 -28z"/>
<path d="M1485 5704 c-32 -34 -20 -53 24 -34 27 11 32 10 57 -14 30 -27 44
-26 44 5 0 26 -34 58 -70 65 -23 5 -34 1 -55 -22z"/>
<path d="M630 5612 c0 -10 33 -42 43 -42 15 0 6 30 -12 40 -24 12 -31 13 -31
2z"/>
<path d="M720 5566 c15 -14 40 -20 70 -16 8 1 -5 8 -30 16 -56 17 -58 17 -40
0z"/>
<path d="M1475 5572 c-48 -33 -70 -115 -45 -163 31 -57 120 20 120 104 0 49
-43 83 -75 59z m7 -127 c-12 -22 -27 -2 -18 22 5 12 10 13 17 6 7 -7 8 -17 1
-28z"/>
<path d="M1034 5526 c-11 -28 2 -51 39 -71 28 -16 41 -18 54 -9 27 17 27 41
-1 69 -28 28 -83 34 -92 11z"/>
<path d="M646 5382 c-8 -14 11 -106 29 -143 9 -17 28 -45 43 -62 117 -135 123
-138 285 -145 98 -4 125 -1 160 13 120 51 170 85 165 113 -5 27 -146 118 -243
158 -16 6 -41 17 -55 23 -65 29 -144 44 -256 48 -74 3 -124 1 -128 -5z m221
-177 c37 -31 44 -34 70 -24 36 12 68 1 106 -37 19 -19 27 -36 25 -53 -3 -25
-6 -26 -53 -23 -59 4 -168 39 -193 62 -10 9 -30 25 -45 34 -31 21 -35 50 -9
65 31 18 58 12 99 -24z"/>
<path d="M1347 5374 c-19 -19 -5 -53 30 -74 42 -25 173 -41 173 -21 0 7 -21
11 -59 11 -51 0 -64 4 -88 26 -15 14 -28 33 -28 42 0 17 -17 26 -28 16z"/>
<path d="M114 6149 c4 -13 10 -45 13 -71 8 -73 19 -57 13 19 -3 45 -10 68 -19
71 -11 4 -12 -1 -7 -19z"/>
<path d="M2680 6086 c-8 -8 -26 -21 -40 -29 -67 -36 -91 -53 -96 -70 -7 -23 6
-147 16 -147 4 0 10 26 14 58 8 63 28 93 89 131 29 17 41 21 50 12 8 -8 6 -14
-8 -24 -11 -9 -14 -16 -8 -20 6 -4 16 0 23 8 7 8 23 15 36 15 13 0 24 5 24 10
0 6 7 10 15 10 8 0 15 -4 15 -10 0 -5 -5 -10 -11 -10 -6 0 -9 -5 -7 -11 2 -6
6 -9 8 -8 3 1 15 -3 27 -9 19 -10 20 -16 12 -44 -5 -18 -9 -34 -9 -35 0 -2 9
-3 19 -3 28 0 36 -18 17 -39 -23 -25 -20 -31 14 -31 20 0 30 -5 30 -15 0 -22
-48 -64 -84 -74 -22 -5 -30 -13 -29 -26 1 -11 -7 -25 -18 -33 -24 -16 -25 -32
-2 -32 27 0 113 62 119 86 3 12 19 34 35 50 32 30 38 61 14 70 -8 4 -15 14
-15 24 0 10 -11 32 -25 48 -14 17 -25 36 -25 43 0 7 -9 32 -21 56 -22 45 -43
53 -79 31 -16 -10 -23 -9 -43 10 -27 26 -37 27 -57 8z"/>
<path d="M147 5805 c-3 -121 -9 -249 -12 -284 -5 -43 -3 -71 5 -87 10 -17 12
-91 8 -304 -5 -268 -4 -280 13 -280 17 0 19 8 19 65 0 36 4 65 9 65 13 0 21
-26 21 -68 0 -33 1 -35 16 -20 19 19 35 266 16 254 -6 -3 -14 -21 -17 -38 l-7
-32 -20 40 c-18 37 -23 82 -29 274 -1 36 -1 180 0 320 1 140 -2 269 -7 285 -7
21 -11 -33 -15 -190z"/>
<path d="M2690 5923 c0 -25 16 -47 28 -40 14 9 2 57 -14 57 -8 0 -14 -8 -14
-17z"/>
<path d="M2720 5650 c0 -5 7 -10 15 -10 8 0 15 5 15 10 0 6 -7 10 -15 10 -8 0
-15 -4 -15 -10z"/>
<path d="M292 5367 c-7 -16 -12 -34 -12 -41 0 -7 -7 -27 -15 -44 -12 -23 -14
-42 -7 -79 l9 -48 7 40 c4 22 14 59 22 82 9 23 14 59 12 80 l-4 38 -12 -28z"/>
<path d="M1910 5226 c0 -24 12 -46 21 -40 15 9 10 54 -6 54 -8 0 -15 -6 -15
-14z"/>
<path d="M195 4850 c-8 -14 3 -30 21 -30 8 0 14 -8 14 -17 0 -12 3 -14 10 -7
7 7 8 19 1 37 -11 27 -34 36 -46 17z"/>
<path d="M127 4799 c-10 -36 -8 -189 2 -189 11 0 21 168 11 194 -6 18 -7 17
-13 -5z"/>
<path d="M1037 4464 c-13 -13 5 -24 36 -24 30 1 31 1 13 15 -21 16 -39 19 -49
9z"/>
<path d="M110 4445 c0 -8 5 -15 10 -15 6 0 10 7 10 15 0 8 -4 15 -10 15 -5 0
-10 -7 -10 -15z"/>
<path d="M1530 4420 c-105 -26 -124 -32 -144 -45 -11 -8 -31 -15 -44 -15 -33
0 -23 -23 14 -31 16 -3 38 -11 49 -18 17 -11 27 -10 56 2 50 21 205 9 272 -21
51 -23 117 -83 117 -107 0 -8 9 -19 21 -25 33 -18 60 -49 57 -67 -4 -21 34
-32 82 -26 50 6 167 -48 183 -85 12 -27 34 -64 68 -114 11 -15 19 -34 19 -42
0 -8 16 -35 35 -60 19 -25 32 -52 29 -59 -3 -8 2 -20 11 -27 14 -12 14 -15 -1
-37 -9 -14 -13 -32 -8 -41 4 -9 8 -57 9 -105 4 -98 -8 -116 -48 -80 -12 11
-32 26 -45 32 -12 7 -20 16 -16 22 3 5 0 16 -6 24 -7 8 -14 61 -17 117 -4 81
-12 120 -36 183 -34 92 -43 105 -68 105 -10 0 -23 8 -28 19 -6 10 -25 21 -42
25 -18 3 -39 12 -47 18 -8 7 -30 18 -48 24 -33 11 -34 11 -34 -17 0 -15 5 -31
10 -34 6 -4 19 -23 30 -43 12 -20 29 -50 40 -67 26 -42 25 -43 -22 -52 -51
-10 -60 -38 -13 -39 51 -1 55 -3 65 -30 14 -36 30 -20 30 31 0 30 -11 64 -35
110 -33 64 -36 85 -13 85 23 0 113 -107 124 -147 17 -64 17 -153 -1 -257 -9
-52 -14 -100 -10 -106 3 -5 24 -10 45 -10 30 0 46 -7 76 -35 l37 -35 -5 -80
c-4 -69 -9 -87 -34 -123 -17 -23 -43 -48 -59 -56 -47 -23 -109 -20 -144 7 -35
26 -40 24 -87 -28 -31 -34 -205 -130 -236 -130 -17 0 -38 -20 -38 -36 0 -24
56 -33 161 -23 110 9 143 25 144 70 0 47 98 81 233 82 41 0 42 0 42 34 0 38
26 57 42 29 6 -11 17 -14 32 -10 17 4 31 -2 51 -20 56 -52 73 -25 25 38 -17
22 -30 47 -30 56 0 9 -5 21 -11 27 -6 6 -8 16 -5 21 11 18 40 1 68 -39 17 -23
36 -39 48 -39 11 0 20 3 20 6 0 10 -22 47 -56 91 -33 43 -45 95 -25 108 5 3
31 -17 57 -45 53 -56 75 -61 118 -27 22 18 29 32 30 63 l1 39 -67 -3 -67 -2
-20 45 c-11 24 -23 66 -26 92 -4 27 -15 72 -26 101 -17 47 -17 53 -3 59 9 3
31 -8 55 -27 76 -60 140 -49 184 34 30 54 11 65 -57 32 -51 -25 -56 -26 -89
-12 -59 25 -78 51 -168 237 -58 120 -109 184 -179 225 -39 23 -58 28 -112 27
-36 -1 -74 -3 -85 -4 -15 -3 -20 3 -25 32 -4 19 -19 55 -36 79 -33 49 -130
129 -157 130 -10 0 -26 4 -36 10 -26 14 -140 20 -181 10z m848 -1053 c2 -10
-3 -17 -12 -17 -18 0 -29 16 -21 31 9 14 29 6 33 -14z"/>
<path d="M97 4403 c-14 -13 -7 -169 8 -189 8 -11 15 -41 15 -70 0 -37 4 -54
15 -58 19 -7 19 11 1 87 -7 32 -11 77 -9 102 6 50 -4 135 -16 135 -4 0 -11 -3
-14 -7z"/>
<path d="M710 4403 c-8 -3 -28 -11 -45 -19 -16 -7 -52 -15 -80 -16 -44 -3 -50
-6 -53 -27 -6 -41 13 -46 62 -17 24 14 50 26 57 26 23 0 99 42 93 51 -6 10
-11 10 -34 2z"/>
<path d="M1183 4158 c-26 -26 -50 -45 -55 -42 -15 9 -58 -25 -58 -46 0 -11
-10 -24 -22 -30 -13 -7 -37 -27 -53 -46 l-31 -35 -52 11 c-53 12 -122 0 -122
-21 0 -5 -9 -9 -21 -9 -49 0 -118 -108 -126 -200 -6 -62 -3 -69 91 -210 46
-70 57 -129 33 -182 -12 -27 -12 -27 -45 -11 -25 12 -36 13 -45 4 -8 -8 -8
-11 1 -11 6 0 31 -32 57 -70 52 -81 70 -93 96 -62 26 32 45 27 63 -18 11 -27
22 -40 35 -40 34 0 33 30 -4 90 -19 32 -35 64 -35 72 0 7 -7 24 -16 37 -12 17
-17 49 -17 129 -1 60 -6 110 -12 114 -5 4 -24 8 -41 8 -45 0 -91 50 -100 107
-9 61 0 96 38 148 37 49 69 61 145 52 36 -4 52 -12 73 -37 35 -41 56 -35 65
19 8 47 35 85 75 106 16 8 43 36 61 62 18 25 39 53 48 62 21 21 97 61 116 61
8 0 15 6 15 14 0 10 -16 15 -55 18 -55 3 -57 2 -102 -44z"/>
<path d="M1383 4200 c16 -11 15 -14 -15 -52 -17 -22 -46 -47 -65 -54 -20 -9
-30 -19 -27 -27 3 -8 -2 -20 -10 -27 -23 -18 -10 -30 24 -24 23 5 34 1 53 -20
13 -14 32 -26 41 -26 27 0 18 37 -15 63 -36 28 -34 52 4 66 14 5 27 17 31 26
5 14 14 16 48 11 53 -9 62 -15 48 -31 -15 -18 -4 -35 22 -35 21 0 90 37 96 52
2 4 8 8 13 8 15 0 10 -47 -6 -60 -29 -24 0 -32 46 -14 56 23 106 69 83 78 -9
3 -27 6 -40 6 -14 0 -36 8 -51 17 -18 12 -44 17 -87 16 -38 -2 -69 3 -82 12
-12 8 -46 17 -75 20 -42 5 -50 4 -36 -5z"/>
<path d="M513 4163 c-27 -5 -29 -21 -5 -39 26 -20 60 -17 67 6 12 36 -3 44
-62 33z"/>
<path d="M1791 4075 c-8 -23 -10 -55 -6 -93 8 -61 34 -100 88 -128 25 -13 27
-13 27 5 0 11 -4 22 -9 25 -5 4 -12 24 -16 47 -5 31 -3 45 11 60 9 10 15 20
13 22 -2 1 -17 9 -34 17 -20 11 -32 25 -35 45 -7 41 -24 41 -39 0z"/>
<path d="M150 3996 c0 -42 3 -56 13 -53 8 3 11 19 9 48 -5 68 -22 72 -22 5z"/>
<path d="M1245 3902 c-33 -29 -57 -73 -58 -108 -1 -42 13 -57 54 -57 41 0 75
37 84 94 13 75 -31 113 -80 71z m5 -112 c0 -11 -7 -20 -15 -20 -15 0 -21 21
-8 33 12 13 23 7 23 -13z"/>
<path d="M179 3900 c-3 -56 4 -157 11 -170 10 -16 16 51 12 125 -3 39 -21 75
-23 45z"/>
<path d="M522 3843 c5 -25 28 -28 28 -4 0 12 -6 21 -16 21 -9 0 -14 -7 -12
-17z"/>
<path d="M0 3723 c0 -22 8 -38 26 -52 15 -12 30 -21 35 -21 9 0 -14 46 -41 80
l-20 25 0 -32z"/>
<path d="M1047 3717 c-10 -28 4 -54 43 -78 22 -13 40 -27 40 -31 0 -5 12 -8
26 -8 14 0 23 4 19 10 -3 6 -15 10 -26 10 -10 0 -19 6 -19 13 0 7 -10 17 -22
22 -13 6 -30 25 -39 44 -12 25 -17 30 -22 18z"/>
<path d="M1908 3625 c-26 -15 -68 -87 -68 -118 0 -19 38 -57 58 -57 8 0 29 15
47 33 42 42 54 96 31 132 -19 28 -30 30 -68 10z m5 -102 c9 -9 -13 -34 -24
-27 -14 8 -11 34 4 34 8 0 17 -3 20 -7z"/>
<path d="M1238 3619 c-10 -6 -18 -14 -18 -19 0 -14 37 -12 46 1 10 17 -9 29
-28 18z"/>
<path d="M1486 3613 c-18 -47 80 -99 103 -55 16 30 -21 72 -64 72 -22 0 -35
-6 -39 -17z"/>
<path d="M1142 3422 c-17 -5 -15 -73 4 -118 9 -22 29 -55 45 -75 16 -20 29
-40 29 -44 0 -3 14 -19 32 -35 64 -59 236 -87 329 -54 73 25 129 61 129 82 -1
32 -152 138 -262 182 -29 12 -64 27 -78 32 -29 12 -211 36 -228 30z m180 -182
c22 -25 31 -28 60 -24 27 5 40 1 66 -21 38 -32 44 -75 12 -75 -35 0 -143 40
-177 66 -56 42 -65 55 -52 70 20 24 62 17 91 -16z"/>
<path d="M1707 3423 c-4 -3 -7 -19 -7 -35 0 -22 6 -31 27 -39 43 -16 55 -9 38
24 -8 15 -12 34 -8 42 4 11 -2 15 -19 15 -14 0 -28 -3 -31 -7z"/>
<path d="M598 3374 c-4 -4 -3 -13 4 -21 9 -11 7 -21 -7 -46 -22 -36 -31 -147
-13 -158 7 -4 11 -40 11 -91 -1 -45 2 -87 6 -93 4 -5 13 -37 20 -70 7 -33 19
-82 27 -110 9 -35 10 -51 2 -56 -11 -7 12 -80 34 -107 16 -19 48 39 48 86 0
54 -30 284 -40 303 -5 9 -11 34 -15 55 -3 22 -12 68 -20 104 -19 92 -21 135
-7 153 10 12 8 16 -12 21 -13 3 -26 13 -28 22 -2 9 -6 12 -10 8z"/>
<path d="M1813 3335 c-7 -21 4 -33 38 -40 50 -11 56 10 9 33 -33 16 -42 17
-47 7z"/>
<path d="M2697 3104 c-11 -11 -8 -44 3 -44 15 0 24 30 13 41 -5 5 -12 6 -16 3z"/>
<path d="M2785 3039 c-10 -15 1 -23 20 -15 9 3 13 10 10 16 -8 13 -22 13 -30
-1z"/>
<path d="M2591 3000 c-11 -33 -14 -35 -42 -19 -16 8 -23 7 -33 -7 -12 -15 -29
-17 -138 -15 -103 2 -127 0 -137 -13 -8 -9 -26 -16 -41 -16 -87 0 -334 -200
-383 -310 -4 -8 -16 -28 -27 -45 -31 -48 -70 -136 -64 -146 3 -5 12 -9 19 -9
8 0 30 -13 48 -30 42 -37 53 -37 61 -4 12 45 113 136 196 175 122 58 171 70
314 76 l131 6 43 -40 c25 -23 42 -48 42 -61 0 -33 18 -27 42 14 24 40 22 40
117 -15 149 -88 222 -195 261 -383 6 -32 10 -84 9 -116 -3 -75 3 -84 50 -76
52 8 113 -23 132 -68 8 -19 14 -65 14 -106 l-1 -74 -51 -49 c-52 -50 -171
-119 -206 -119 -11 0 -35 14 -54 31 l-35 31 -39 -41 c-87 -90 -231 -147 -422
-166 -49 -5 -76 -4 -93 6 -18 9 -27 10 -35 2 -14 -14 -3 -33 17 -33 41 0 -10
-119 -71 -165 -50 -39 -121 -29 -167 21 -22 26 -33 120 -19 172 10 34 16 41
33 39 13 -1 24 4 25 13 4 15 -30 34 -102 56 -19 6 -36 23 -49 47 -11 20 -26
37 -34 37 -19 0 -262 248 -262 267 0 2 -20 31 -45 63 -25 32 -45 63 -45 68 0
5 -13 27 -28 48 -16 21 -31 46 -35 54 -7 15 -27 46 -60 93 -20 28 -20 25 22
147 22 66 70 121 101 118 18 -2 26 -10 28 -28 6 -39 20 -47 31 -17 12 32 36
35 51 7 6 -11 15 -20 20 -20 18 0 21 40 5 70 -15 30 -15 33 0 51 10 10 15 25
12 33 -9 22 -95 10 -125 -17 -22 -20 -24 -20 -50 -5 -53 32 -66 60 -65 146 1
59 7 92 23 127 20 43 20 49 6 63 -12 12 -22 14 -43 6 -22 -8 -30 -19 -39 -59
-15 -64 -39 -112 -77 -152 -25 -27 -39 -33 -93 -39 -52 -5 -69 -3 -90 11 -37
24 -53 7 -35 -38 7 -17 15 -50 17 -71 2 -21 6 -41 9 -44 2 -3 23 16 46 41 35
40 46 47 78 47 21 0 41 -3 44 -6 9 -10 -11 -44 -54 -91 -28 -30 -39 -52 -39
-73 0 -40 16 -70 38 -70 22 0 72 -46 72 -66 0 -22 -96 -114 -119 -114 -10 0
-38 -9 -62 -20 -24 -11 -52 -20 -61 -20 -27 0 -50 30 -45 59 4 20 -2 33 -24
55 -16 16 -29 35 -29 42 0 23 -43 44 -92 44 -71 0 -98 14 -98 50 l0 30 70 0
c39 0 70 3 70 6 0 4 -25 30 -55 59 -44 41 -55 57 -55 82 0 18 5 35 11 39 6 3
38 -21 73 -55 34 -33 65 -61 69 -61 16 0 6 37 -17 61 -33 36 -59 88 -52 106 4
9 16 13 33 11 22 -2 34 -14 54 -51 14 -27 36 -58 47 -70 19 -19 22 -19 28 -4
3 10 -1 28 -10 41 -8 14 -18 43 -22 65 -6 37 -4 41 20 51 26 10 26 10 11 47
-23 55 -2 188 38 230 18 20 19 26 7 48 -18 33 -65 35 -76 3 -7 -24 -62 -116
-79 -134 -5 -6 -39 -44 -75 -84 -84 -94 -122 -130 -139 -130 -10 0 -10 -6 4
-26 10 -15 15 -41 14 -64 -2 -21 2 -44 9 -52 13 -17 15 -60 6 -131 -6 -45 -4
-52 24 -80 35 -37 62 -88 62 -116 0 -11 7 -26 15 -35 9 -8 24 -41 34 -73 11
-36 25 -59 35 -61 23 -5 21 29 -4 61 -11 14 -25 47 -30 74 -5 26 -12 58 -16
71 -8 26 14 31 22 4 3 -9 10 -24 15 -32 5 -8 14 -25 19 -38 7 -16 15 -22 28
-18 13 4 27 -4 47 -29 37 -47 60 -58 119 -60 34 -1 52 -7 61 -19 18 -23 28 -4
20 35 -8 35 16 69 48 69 11 0 28 7 38 16 26 24 53 1 95 -81 20 -38 47 -83 59
-100 18 -26 45 -74 75 -135 4 -8 17 -16 29 -18 12 -2 26 -13 30 -25 5 -12 27
-41 50 -65 22 -23 41 -49 41 -57 0 -8 6 -15 13 -15 8 0 42 -27 78 -61 35 -34
74 -65 87 -70 12 -5 25 -17 29 -26 4 -10 13 -23 22 -29 20 -15 41 -89 41 -144
0 -81 64 -184 140 -228 30 -17 40 -18 67 -9 48 17 110 74 150 137 52 81 88
110 142 116 25 3 65 13 89 21 51 19 74 7 42 -22 -11 -10 -20 -23 -20 -29 0 -6
-16 -27 -35 -46 -19 -19 -35 -42 -35 -52 0 -10 -9 -26 -20 -35 -11 -10 -20
-30 -20 -44 0 -15 -6 -29 -12 -32 -9 -2 -13 -24 -13 -63 0 -52 -2 -59 -19 -56
-17 3 -18 -1 -12 -50 4 -29 14 -60 22 -69 8 -8 14 -24 14 -33 0 -10 6 -32 14
-49 26 -57 26 -168 1 -127 -12 19 -39 10 -71 -26 -24 -25 -39 -34 -52 -30 -10
4 -45 0 -78 -8 -32 -8 -71 -17 -86 -20 -38 -8 -38 -41 -1 -51 27 -6 109 5 213
30 30 7 78 11 105 9 69 -5 83 5 67 49 -7 18 -12 46 -12 62 0 24 -17 71 -51
137 -5 10 -9 60 -9 112 0 175 42 247 247 423 62 54 159 123 172 123 12 0 193
94 241 125 25 16 80 56 123 88 80 60 93 84 59 109 -27 19 -75 105 -81 147 -6
32 -10 36 -39 39 -30 3 -32 6 -32 41 0 21 7 58 15 81 23 64 20 248 -4 325 -11
33 -27 75 -36 93 -40 78 -211 232 -303 272 -27 12 -42 47 -42 101 0 30 -3 38
-12 32 -15 -9 -79 -33 -90 -33 -19 0 -68 85 -68 117 0 42 -24 44 -39 3z m9
-172 c19 -7 46 -23 60 -36 14 -13 48 -42 75 -64 93 -76 86 -93 -21 -55 -42 15
-80 25 -84 22 -4 -3 -39 9 -77 26 -79 36 -203 47 -260 24 -24 -10 -39 -11 -61
-3 -25 10 -34 8 -60 -10 -37 -27 -82 -29 -82 -5 0 24 86 103 113 103 12 0 29
5 37 10 21 14 315 4 360 -12z m-1642 -120 c16 -16 15 -38 -2 -38 -18 0 -39 27
-31 40 8 13 18 13 33 -2z m-105 -93 c1 -5 -6 -11 -15 -13 -11 -2 -18 3 -18 13
0 17 30 18 33 0z m535 -65 c29 -27 28 -35 -8 -67 -16 -14 -30 -31 -30 -37 -1
-6 -12 -24 -25 -41 -20 -23 -27 -27 -34 -16 -5 7 -6 23 -2 35 10 33 65 146 72
146 3 0 15 -9 27 -20z m23 -123 c-13 -13 -15 11 -4 40 7 16 8 15 11 -6 2 -13
-1 -28 -7 -34z"/>
<path d="M721 2558 c-1 -21 4 -38 9 -38 11 0 11 14 0 50 -7 22 -8 21 -9 -12z"/>
<path d="M2127 2533 c-15 -15 -5 -23 27 -23 26 0 40 -7 55 -27 17 -24 22 -26
31 -13 14 21 13 27 -10 50 -20 20 -88 28 -103 13z"/>
<path d="M150 2403 c0 -21 3 -24 9 -14 5 8 7 20 4 28 -8 21 -13 15 -13 -14z"/>
<path d="M2135 2402 c-54 -38 -73 -128 -36 -173 17 -22 21 -22 45 -9 38 20 66
70 66 117 0 55 -41 90 -75 65z m13 -119 c-4 -22 -22 -20 -26 1 -2 10 3 16 13
16 10 0 15 -7 13 -17z"/>
<path d="M6810 2377 c-3 -3 -179 -10 -390 -16 -212 -6 -443 -15 -515 -21 -355
-27 -420 -32 -548 -40 -76 -5 -146 -11 -155 -14 -9 -3 -78 -10 -152 -15 -74
-6 -162 -15 -195 -21 -33 -5 -121 -17 -195 -26 -74 -8 -166 -20 -205 -26 -38
-5 -104 -13 -146 -18 -41 -4 -100 -12 -130 -18 -29 -6 -101 -18 -159 -27 -58
-9 -140 -23 -183 -31 -42 -8 -97 -14 -122 -14 -24 0 -56 -5 -72 -11 -15 -6
-50 -12 -78 -13 -35 -2 -51 -7 -53 -18 -5 -27 69 -31 135 -8 62 22 90 25 112
11 21 -13 -3 -48 -52 -73 l-42 -22 43 -8 c36 -8 42 -13 42 -34 0 -26 -4 -29
-62 -39 l-38 -6 21 -29 c13 -17 19 -35 15 -46 -6 -14 -16 -16 -74 -11 -37 3
-86 14 -110 23 -42 17 -43 17 -67 -6 -28 -26 -33 -68 -10 -76 9 -4 29 -1 45 6
24 10 36 10 60 0 39 -16 107 0 172 42 36 23 47 37 46 54 -3 27 18 69 49 100
13 13 20 29 17 41 -10 36 48 52 396 108 118 18 258 39 310 44 130 15 253 31
325 42 33 5 89 12 125 14 62 5 130 11 395 36 66 6 152 13 190 15 39 2 102 8
140 13 77 11 183 15 925 41 320 11 587 10 1360 -5 121 -2 514 -24 650 -37 69
-6 152 -10 185 -10 33 1 103 -6 155 -14 52 -8 145 -17 205 -20 132 -5 259 -18
380 -38 50 -9 137 -21 195 -27 58 -6 130 -15 160 -20 49 -9 159 -23 335 -44
33 -4 69 -12 79 -18 11 -5 41 -11 67 -13 26 -2 80 -10 121 -19 40 -8 89 -15
109 -15 20 0 56 -7 80 -16 24 -9 76 -20 114 -25 115 -14 267 -42 305 -56 8 -4
26 -7 40 -9 14 -1 57 -13 95 -28 39 -14 85 -25 103 -26 19 0 68 -9 110 -21 43
-11 102 -27 132 -36 30 -8 65 -19 78 -24 13 -5 34 -9 48 -9 14 0 41 -8 62 -19
20 -10 60 -22 87 -26 53 -7 246 -67 380 -117 44 -16 91 -32 105 -35 14 -2 34
-8 45 -13 93 -41 154 -63 175 -64 14 -1 55 -16 93 -34 37 -17 75 -32 85 -32
10 0 28 -8 42 -17 36 -25 153 -83 168 -83 7 0 51 -18 97 -40 46 -22 88 -40 93
-40 5 0 21 -11 36 -25 14 -13 44 -30 66 -36 22 -7 49 -23 61 -35 13 -13 29
-24 36 -24 8 0 26 -6 41 -14 15 -7 44 -16 65 -19 36 -6 37 -5 37 24 0 17 -5
29 -13 29 -7 0 -23 10 -37 23 -14 13 -52 39 -85 58 -93 54 -473 239 -490 239
-4 0 -26 9 -49 19 -23 11 -79 34 -126 52 -47 17 -116 44 -155 60 -38 15 -79
30 -90 33 -11 2 -65 21 -120 41 -55 20 -113 40 -130 45 -16 4 -37 10 -45 13
-15 5 -206 63 -305 92 -27 8 -72 21 -98 30 -26 8 -56 15 -66 15 -9 0 -37 6
-62 14 -62 19 -152 42 -239 61 -41 9 -87 21 -101 26 -15 6 -51 14 -80 19 -30
4 -85 15 -124 24 -38 9 -95 21 -125 27 -72 13 -178 34 -266 54 -40 8 -86 15
-104 15 -17 0 -40 4 -50 10 -10 5 -53 14 -97 19 -99 13 -205 29 -265 42 -26 6
-80 14 -120 19 -169 19 -268 32 -343 46 -44 8 -102 14 -130 14 -27 0 -85 7
-128 15 -43 8 -102 15 -130 15 -29 0 -110 6 -182 15 -129 14 -383 35 -690 56
-314 21 -1632 50 -1645 36z"/>
<path d="M2798 2333 c-10 -2 -18 -13 -18 -23 0 -22 16 -35 25 -20 3 5 26 10
51 10 49 0 58 15 18 30 -26 10 -46 11 -76 3z"/>
<path d="M1667 2280 c-33 -26 -41 -66 -25 -115 9 -28 20 -41 38 -45 15 -4 26
-14 28 -27 4 -24 24 -35 47 -27 23 9 18 20 -15 34 -32 13 -35 20 -45 92 -5 39
-3 50 14 67 12 12 21 26 21 31 0 17 -36 11 -63 -10z"/>
<path d="M652 2249 c2 -7 10 -15 17 -17 8 -3 12 1 9 9 -2 7 -10 15 -17 17 -8
3 -12 -1 -9 -9z"/>
<path d="M1921 2210 c3 -17 17 -32 44 -47 63 -35 76 -40 104 -35 23 5 24 6 6
13 -11 4 -30 8 -43 8 -13 1 -33 11 -45 24 -12 12 -33 31 -46 42 l-23 20 3 -25z"/>
<path d="M3351 2216 c-7 -8 -11 -37 -9 -68 3 -46 6 -53 26 -56 21 -3 22 0 22
56 0 65 -17 95 -39 68z"/>
<path d="M2791 2194 c-44 -31 -65 -120 -38 -159 11 -14 21 -16 48 -11 64 12
94 119 46 164 -28 26 -27 26 -56 6z m19 -119 c0 -8 -7 -15 -15 -15 -8 0 -15 7
-15 15 0 8 7 15 15 15 8 0 15 -7 15 -15z"/>
<path d="M151 2135 c-1 -86 10 -155 26 -155 21 0 27 29 9 49 -10 11 -16 36
-17 67 -1 70 -17 105 -18 39z"/>
<path d="M2342 2153 c5 -45 104 -88 141 -61 40 29 -29 88 -102 88 -40 0 -42
-1 -39 -27z"/>
<path d="M3570 2145 c-7 -8 -11 -17 -8 -20 8 -8 49 8 45 18 -6 18 -23 19 -37
2z"/>
<path d="M3264 1986 c-4 -12 32 -86 42 -86 2 0 4 23 4 50 0 44 -3 50 -20 50
-11 0 -23 -6 -26 -14z"/>
<path d="M986 1965 c-3 -9 0 -15 9 -15 16 0 20 16 6 24 -5 3 -11 -1 -15 -9z"/>
<path d="M1993 1959 c-28 -34 68 -259 111 -259 6 0 30 -18 53 -40 35 -34 51
-41 105 -49 34 -5 71 -12 81 -16 20 -8 23 8 4 23 -7 6 -35 16 -62 22 -63 13
-155 58 -155 76 0 19 41 44 73 44 30 0 137 -52 168 -81 9 -9 21 -29 26 -45 9
-26 14 -29 54 -28 50 2 105 29 163 78 l40 34 -33 31 c-18 17 -44 34 -57 37
-13 3 -24 9 -24 13 0 10 -174 96 -235 117 -122 41 -294 64 -312 43z"/>
<path d="M290 1945 c0 -8 -9 -19 -19 -25 -18 -9 -18 -13 -6 -57 30 -111 51
-131 49 -46 -1 21 -2 62 -3 91 0 28 -5 52 -11 52 -5 0 -10 -7 -10 -15z"/>
<path d="M2735 1900 c3 -5 15 -10 26 -10 10 0 19 5 19 10 0 6 -12 10 -26 10
-14 0 -23 -4 -19 -10z"/>
<path d="M2826 1901 c-7 -11 22 -23 35 -15 5 3 9 9 9 15 0 12 -37 12 -44 0z"/>
<path d="M1333 1858 c4 -12 1 -28 -5 -35 -12 -15 -5 -23 182 -213 151 -153
156 -158 180 -221 12 -30 32 -65 45 -79 44 -46 55 -101 55 -273 0 -133 2 -159
15 -164 9 -3 18 -3 21 -1 10 11 6 355 -5 402 -7 27 -27 70 -46 96 -27 37 -32
49 -22 59 9 9 8 16 -8 29 -12 9 -30 34 -40 55 -35 68 -83 118 -304 320 -57 52
-76 59 -68 25z"/>
<path d="M1226 1842 c-3 -6 -1 -14 5 -17 15 -10 25 3 12 16 -7 7 -13 7 -17 1z"/>
<path d="M1140 1820 c0 -5 8 -18 18 -28 69 -72 93 -105 88 -118 -4 -10 -13
-13 -31 -8 -30 7 -32 -5 -5 -39 11 -14 20 -33 20 -42 0 -10 19 -38 42 -63 24
-27 37 -47 30 -50 -7 -2 -12 -18 -11 -35 l0 -32 16 23 c21 30 42 28 85 -10 19
-18 54 -46 77 -61 22 -16 41 -35 41 -44 0 -19 39 -85 57 -96 7 -4 13 -18 13
-31 0 -25 27 -98 40 -106 11 -7 50 -82 50 -96 0 -15 39 -49 47 -41 3 4 -15 51
-41 104 -71 147 -73 150 -121 263 -47 113 -114 198 -240 309 -34 29 -37 35
-23 45 11 8 17 32 19 76 4 65 3 67 -31 62 -5 -1 -10 -15 -10 -32 0 -16 -3 -30
-7 -30 -5 0 -26 16 -48 36 -48 43 -75 59 -75 44z"/>
<path d="M30 1724 c0 -28 31 -277 37 -294 3 -9 10 2 18 27 14 46 7 138 -17
227 -13 49 -38 75 -38 40z"/>
<path d="M2130 1544 c0 -21 40 -53 67 -54 12 0 35 12 50 26 l28 25 -43 -5
c-30 -5 -49 -2 -65 9 -27 19 -37 19 -37 -1z"/>
<path d="M138 1465 c-10 -21 -9 -29 5 -43 16 -15 17 -14 17 26 0 48 -6 53 -22
17z"/>
<path d="M175 1341 c-8 -14 3 -51 16 -51 5 0 6 12 3 28 -8 34 -10 36 -19 23z"/>
<path d="M541 1273 c0 -25 1 -26 9 -8 12 27 12 35 0 35 -5 0 -10 -12 -9 -27z"/>
<path d="M541 1191 c-1 -27 2 -32 11 -23 8 8 8 17 0 34 -10 22 -11 21 -11 -11z"/>
<path d="M1500 976 c0 -8 5 -18 10 -21 6 -3 10 1 10 9 0 8 -4 18 -10 21 -5 3
-10 -1 -10 -9z"/>
<path d="M570 883 c0 -24 5 -43 10 -43 13 0 13 50 0 70 -7 11 -10 4 -10 -27z"/>
<path d="M1830 849 c0 -17 20 -49 30 -49 14 0 12 34 -2 48 -15 15 -28 15 -28
1z"/>
<path d="M335 770 c11 -56 16 -70 26 -70 17 0 9 52 -12 78 l-21 27 7 -35z"/>
<path d="M1362 763 c5 -25 28 -28 28 -4 0 12 -6 21 -16 21 -9 0 -14 -7 -12
-17z"/>
<path d="M4565 709 c-10 -15 1 -23 20 -15 9 3 13 10 10 16 -8 13 -22 13 -30
-1z"/>
<path d="M504 505 c-17 -27 -17 -27 7 -46 34 -26 39 -24 32 14 -10 56 -18 63
-39 32z"/>
<path d="M4602 507 c-16 -17 -19 -26 -11 -34 13 -13 39 -6 56 16 33 42 -8 58
-45 18z"/>
<path d="M2059 493 c-4 -28 6 -61 27 -89 32 -41 52 -49 75 -28 12 11 30 15 56
12 21 -3 45 0 55 5 23 15 126 -11 139 -34 5 -10 9 -31 9 -48 0 -52 16 -34 26
30 l10 62 -35 15 c-25 11 -74 18 -156 20 -105 3 -124 6 -150 26 -43 32 -55 38
-56 29z"/>
<path d="M2174 355 c-9 -22 22 -53 37 -38 15 15 7 47 -14 51 -9 2 -20 -4 -23
-13z"/>
<path d="M1735 339 c-10 -15 3 -25 16 -12 7 7 7 13 1 17 -6 3 -14 1 -17 -5z"/>
<path d="M2300 270 c0 -5 7 -10 15 -10 8 0 15 5 15 10 0 6 -7 10 -15 10 -8 0
-15 -4 -15 -10z"/>
<path d="M614 219 c-3 -6 1 -18 10 -27 15 -15 16 -14 16 11 0 27 -13 36 -26
16z"/>
<path d="M2420 220 c0 -6 10 -15 23 -21 12 -5 38 -21 57 -35 19 -14 47 -28 63
-31 15 -3 27 -9 27 -13 0 -4 23 -18 50 -31 28 -13 50 -27 50 -30 0 -4 12 -10
27 -14 15 -3 39 -15 54 -26 20 -14 44 -19 91 -19 44 0 59 3 48 10 -8 5 -25 10
-37 10 -11 0 -43 11 -70 24 -26 13 -59 28 -73 35 -22 10 -134 69 -245 129 -43
24 -65 28 -65 12z"/>
</g>
</svg>
